<svg width="64" height="64" viewBox="0 0 64 64" fill="none" xmlns="http://www.w3.org/2000/svg">
<g filter="url(#filter0_i_13555_60377)">
<circle cx="32" cy="32" r="32" fill="url(#paint0_linear_13555_60377)"/>
</g>
<path d="M39.4934 30.3333C38.9201 30.3333 38.4667 29.8667 38.4667 29.3067C38.4667 28.8133 37.9734 27.7867 37.1467 26.8933C36.3334 26.0267 35.4401 25.52 34.6934 25.52C34.1201 25.52 33.6667 25.0533 33.6667 24.4933C33.6667 23.9333 34.1334 23.4667 34.6934 23.4667C36.0267 23.4667 37.4267 24.1867 38.6534 25.48C39.8001 26.6933 40.5334 28.2 40.5334 29.2933C40.5334 29.8667 40.0667 30.3333 39.4934 30.3333Z" fill="white"/>
<g filter="url(#filter1_d_13555_60377)">
<mask id="path-3-inside-1_13555_60377" fill="white">
<path d="M44.3066 30.3333C43.7333 30.3333 43.2799 29.8667 43.2799 29.3067C43.2799 24.5733 39.4266 20.7333 34.7066 20.7333C34.1333 20.7333 33.6799 20.2667 33.6799 19.7067C33.6799 19.1467 34.1333 18.6667 34.6933 18.6667C40.5599 18.6667 45.3333 23.44 45.3333 29.3067C45.3333 29.8667 44.8666 30.3333 44.3066 30.3333Z"/>
</mask>
<path d="M44.3066 30.3333V24.3333C47.0976 24.3333 49.2799 26.6038 49.2799 29.3067H43.2799H37.2799C37.2799 33.1295 40.3689 36.3333 44.3066 36.3333V30.3333ZM43.2799 29.3067H49.2799C49.2799 21.2536 42.7342 14.7333 34.7066 14.7333V20.7333V26.7333C36.119 26.7333 37.2799 27.8931 37.2799 29.3067H43.2799ZM34.7066 20.7333V14.7333C37.4976 14.7333 39.6799 17.0038 39.6799 19.7067H33.6799H27.6799C27.6799 23.5295 30.7689 26.7333 34.7066 26.7333V20.7333ZM33.6799 19.7067H39.6799C39.6799 22.2566 37.6472 24.6667 34.6933 24.6667V18.6667V12.6667C30.6194 12.6667 27.6799 16.0368 27.6799 19.7067H33.6799ZM34.6933 18.6667V24.6667C37.2462 24.6667 39.3333 26.7537 39.3333 29.3067H45.3333H51.3333C51.3333 20.1263 43.8736 12.6667 34.6933 12.6667V18.6667ZM45.3333 29.3067H39.3333C39.3333 26.553 41.5529 24.3333 44.3066 24.3333V30.3333V36.3333C48.1803 36.3333 51.3333 33.1804 51.3333 29.3067H45.3333Z" fill="white" mask="url(#path-3-inside-1_13555_60377)"/>
</g>
<path d="M31.7201 34.9467L27.3601 39.3067C26.8801 38.88 26.4134 38.44 25.9601 37.9867C24.5867 36.6 23.3467 35.1467 22.2401 33.6267C21.1467 32.1067 20.2667 30.5867 19.6267 29.08C18.9867 27.56 18.6667 26.1067 18.6667 24.72C18.6667 23.8133 18.8267 22.9467 19.1467 22.1467C19.4667 21.3333 19.9734 20.5867 20.6801 19.92C21.5334 19.08 22.4667 18.6667 23.4534 18.6667C23.8267 18.6667 24.2001 18.7467 24.5334 18.9067C24.8801 19.0667 25.1867 19.3067 25.4267 19.6533L28.5201 24.0133C28.7601 24.3467 28.9334 24.6533 29.0534 24.9467C29.1734 25.2267 29.2401 25.5067 29.2401 25.76C29.2401 26.08 29.1467 26.4 28.9601 26.7067C28.7867 27.0133 28.5334 27.3333 28.2134 27.6533L27.2001 28.7067C27.0534 28.8533 26.9867 29.0267 26.9867 29.24C26.9867 29.3467 27.0001 29.44 27.0267 29.5467C27.0667 29.6533 27.1067 29.7333 27.1334 29.8133C27.3734 30.2533 27.7867 30.8267 28.3734 31.52C28.9734 32.2133 29.6134 32.92 30.3067 33.6267C30.7867 34.0933 31.2534 34.5467 31.7201 34.9467Z" fill="white"/>
<path d="M45.2934 40.44C45.2934 40.8133 45.2267 41.2 45.0934 41.5733C45.0534 41.68 45.0134 41.7867 44.96 41.8933C44.7334 42.3733 44.4401 42.8267 44.0534 43.2533C43.4001 43.9733 42.68 44.4933 41.8667 44.8267C41.8534 44.8267 41.84 44.84 41.8267 44.84C41.04 45.16 40.1867 45.3333 39.2667 45.3333C37.9067 45.3333 36.4534 45.0133 34.92 44.36C33.3867 43.7067 31.8534 42.8267 30.3334 41.72C29.8134 41.3333 29.2934 40.9467 28.8 40.5333L33.16 36.1733C33.5334 36.4533 33.8667 36.6667 34.1467 36.8133C34.2134 36.84 34.2934 36.88 34.3867 36.92C34.4934 36.96 34.6 36.9733 34.72 36.9733C34.9467 36.9733 35.12 36.8933 35.2667 36.7467L36.28 35.7467C36.6134 35.4133 36.9334 35.16 37.24 35C37.5467 34.8133 37.8534 34.72 38.1867 34.72C38.44 34.72 38.7067 34.7733 39 34.8933C39.2934 35.0133 39.6 35.1867 39.9334 35.4133L44.3467 38.5467C44.6934 38.7867 44.9334 39.0667 45.08 39.4C45.2134 39.7333 45.2934 40.0667 45.2934 40.44Z" fill="white"/>
<defs>
<filter id="filter0_i_13555_60377" x="0" y="0" width="64" height="64" filterUnits="userSpaceOnUse" color-interpolation-filters="sRGB">
<feFlood flood-opacity="0" result="BackgroundImageFix"/>
<feBlend mode="normal" in="SourceGraphic" in2="BackgroundImageFix" result="shape"/>
<feColorMatrix in="SourceAlpha" type="matrix" values="0 0 0 0 0 0 0 0 0 0 0 0 0 0 0 0 0 0 127 0" result="hardAlpha"/>
<feOffset/>
<feGaussianBlur stdDeviation="3"/>
<feComposite in2="hardAlpha" operator="arithmetic" k2="-1" k3="1"/>
<feColorMatrix type="matrix" values="0 0 0 0 0 0 0 0 0 0 0 0 0 0 0 0 0 0 0.27 0"/>
<feBlend mode="normal" in2="shape" result="effect1_innerShadow_13555_60377"/>
</filter>
<filter id="filter1_d_13555_60377" x="29.6799" y="15.6667" width="19.6533" height="19.6667" filterUnits="userSpaceOnUse" color-interpolation-filters="sRGB">
<feFlood flood-opacity="0" result="BackgroundImageFix"/>
<feColorMatrix in="SourceAlpha" type="matrix" values="0 0 0 0 0 0 0 0 0 0 0 0 0 0 0 0 0 0 127 0" result="hardAlpha"/>
<feOffset dy="1"/>
<feGaussianBlur stdDeviation="2"/>
<feComposite in2="hardAlpha" operator="out"/>
<feColorMatrix type="matrix" values="0 0 0 0 0 0 0 0 0 0 0 0 0 0 0 0 0 0 0.25 0"/>
<feBlend mode="normal" in2="BackgroundImageFix" result="effect1_dropShadow_13555_60377"/>
<feBlend mode="normal" in="SourceGraphic" in2="effect1_dropShadow_13555_60377" result="shape"/>
</filter>
<linearGradient id="paint0_linear_13555_60377" x1="32" y1="0" x2="32" y2="64" gradientUnits="userSpaceOnUse">
<stop stop-color="#339389"/>
<stop offset="1" stop-color="#21716A"/>
</linearGradient>
</defs>
</svg>
