<svg width="64" height="64" viewBox="0 0 64 64" fill="none" xmlns="http://www.w3.org/2000/svg">
<g filter="url(#filter0_i_13555_60372)">
<circle cx="32" cy="32" r="32" fill="url(#paint0_linear_13555_60372)"/>
</g>
<path d="M38.6667 18.6667H25.3334C21.6534 18.6667 18.6667 21.64 18.6667 25.3067V33.28V34.6133C18.6667 38.28 21.6534 41.2533 25.3334 41.2533H27.3334C27.6934 41.2533 28.1734 41.4933 28.4001 41.7867L30.4001 44.44C31.2801 45.6133 32.7201 45.6133 33.6001 44.44L35.6001 41.7867C35.8534 41.4533 36.2534 41.2533 36.6667 41.2533H38.6667C42.3467 41.2533 45.3334 38.28 45.3334 34.6133V25.3067C45.3334 21.64 42.3467 18.6667 38.6667 18.6667ZM26.6667 32C25.9201 32 25.3334 31.4 25.3334 30.6667C25.3334 29.9333 25.9334 29.3333 26.6667 29.3333C27.4001 29.3333 28.0001 29.9333 28.0001 30.6667C28.0001 31.4 27.4134 32 26.6667 32ZM32.0001 32C31.2534 32 30.6667 31.4 30.6667 30.6667C30.6667 29.9333 31.2667 29.3333 32.0001 29.3333C32.7334 29.3333 33.3334 29.9333 33.3334 30.6667C33.3334 31.4 32.7467 32 32.0001 32ZM37.3334 32C36.5867 32 36.0001 31.4 36.0001 30.6667C36.0001 29.9333 36.6001 29.3333 37.3334 29.3333C38.0667 29.3333 38.6667 29.9333 38.6667 30.6667C38.6667 31.4 38.0801 32 37.3334 32Z" fill="white"/>
<defs>
<filter id="filter0_i_13555_60372" x="0" y="0" width="64" height="64" filterUnits="userSpaceOnUse" color-interpolation-filters="sRGB">
<feFlood flood-opacity="0" result="BackgroundImageFix"/>
<feBlend mode="normal" in="SourceGraphic" in2="BackgroundImageFix" result="shape"/>
<feColorMatrix in="SourceAlpha" type="matrix" values="0 0 0 0 0 0 0 0 0 0 0 0 0 0 0 0 0 0 127 0" result="hardAlpha"/>
<feOffset/>
<feGaussianBlur stdDeviation="3"/>
<feComposite in2="hardAlpha" operator="arithmetic" k2="-1" k3="1"/>
<feColorMatrix type="matrix" values="0 0 0 0 0 0 0 0 0 0 0 0 0 0 0 0 0 0 0.27 0"/>
<feBlend mode="normal" in2="shape" result="effect1_innerShadow_13555_60372"/>
</filter>
<linearGradient id="paint0_linear_13555_60372" x1="32" y1="0" x2="32" y2="64" gradientUnits="userSpaceOnUse">
<stop stop-color="#339389"/>
<stop offset="1" stop-color="#21716A"/>
</linearGradient>
</defs>
</svg>
