<svg width="64" height="64" viewBox="0 0 64 64" fill="none" xmlns="http://www.w3.org/2000/svg">
<g filter="url(#filter0_i_13510_60018)">
<circle cx="32" cy="32" r="32" fill="#FFB90D"/>
</g>
<g filter="url(#filter1_d_13510_60018)">
<path d="M22.6807 41.6878H41.3473C41.7824 41.6848 42.2101 41.5753 42.5932 41.369C42.9762 41.1626 43.303 40.8657 43.545 40.5041C43.7869 40.1425 43.9367 39.7272 43.9813 39.2944C44.0258 38.8616 43.9638 38.4245 43.8007 38.0211L34.334 21.6878C34.1034 21.271 33.7653 20.9236 33.355 20.6817C32.9447 20.4397 32.477 20.3121 32.0007 20.3121C31.5243 20.3121 31.0567 20.4397 30.6463 20.6817C30.236 20.9236 29.898 21.271 29.6673 21.6878L20.2007 38.0211C20.0406 38.4152 19.9771 38.8419 20.0155 39.2656C20.054 39.6892 20.1932 40.0975 20.4215 40.4563C20.6499 40.8152 20.9608 41.1142 21.3283 41.3285C21.6958 41.5427 22.1092 41.6659 22.534 41.6878" fill="white"/>
<path d="M22.6807 41.6878H41.3473C41.7824 41.6848 42.2101 41.5753 42.5932 41.369C42.9762 41.1626 43.303 40.8657 43.545 40.5041C43.7869 40.1425 43.9367 39.7272 43.9813 39.2944C44.0258 38.8616 43.9638 38.4245 43.8007 38.0211L34.334 21.6878C34.1034 21.271 33.7653 20.9236 33.355 20.6817C32.9447 20.4397 32.477 20.3121 32.0007 20.3121C31.5243 20.3121 31.0567 20.4397 30.6463 20.6817C30.236 20.9236 29.898 21.271 29.6673 21.6878L20.2007 38.0211C20.0406 38.4152 19.9771 38.8419 20.0155 39.2656C20.054 39.6892 20.1932 40.0975 20.4215 40.4563C20.6499 40.8152 20.9608 41.1142 21.3283 41.3285C21.6958 41.5427 22.1092 41.6659 22.534 41.6878" stroke="white" stroke-width="2.66667" stroke-linecap="round" stroke-linejoin="round"/>
<path d="M32.0137 26.3545V33.3545M32.0137 37.3545V37.3678" stroke="#FFB700" stroke-width="2.66667" stroke-linecap="round" stroke-linejoin="round"/>
</g>
<defs>
<filter id="filter0_i_13510_60018" x="0" y="0" width="64" height="64" filterUnits="userSpaceOnUse" color-interpolation-filters="sRGB">
<feFlood flood-opacity="0" result="BackgroundImageFix"/>
<feBlend mode="normal" in="SourceGraphic" in2="BackgroundImageFix" result="shape"/>
<feColorMatrix in="SourceAlpha" type="matrix" values="0 0 0 0 0 0 0 0 0 0 0 0 0 0 0 0 0 0 127 0" result="hardAlpha"/>
<feOffset/>
<feGaussianBlur stdDeviation="3"/>
<feComposite in2="hardAlpha" operator="arithmetic" k2="-1" k3="1"/>
<feColorMatrix type="matrix" values="0 0 0 0 0 0 0 0 0 0 0 0 0 0 0 0 0 0 0.27 0"/>
<feBlend mode="normal" in2="shape" result="effect1_innerShadow_13510_60018"/>
</filter>
<filter id="filter1_d_13510_60018" x="14.6714" y="14.9788" width="34.6572" height="32.0424" filterUnits="userSpaceOnUse" color-interpolation-filters="sRGB">
<feFlood flood-opacity="0" result="BackgroundImageFix"/>
<feColorMatrix in="SourceAlpha" type="matrix" values="0 0 0 0 0 0 0 0 0 0 0 0 0 0 0 0 0 0 127 0" result="hardAlpha"/>
<feOffset/>
<feGaussianBlur stdDeviation="2"/>
<feComposite in2="hardAlpha" operator="out"/>
<feColorMatrix type="matrix" values="0 0 0 0 0 0 0 0 0 0 0 0 0 0 0 0 0 0 0.25 0"/>
<feBlend mode="normal" in2="BackgroundImageFix" result="effect1_dropShadow_13510_60018"/>
<feBlend mode="normal" in="SourceGraphic" in2="effect1_dropShadow_13510_60018" result="shape"/>
</filter>
</defs>
</svg>
